<svg xmlns="http://www.w3.org/2000/svg" viewBox="0 0 640 640"><!--! Font Awesome Pro 7.0.1 by @fontawesome - https://fontawesome.com License - https://fontawesome.com/license (Commercial License) Copyright 2025 Fonticons, Inc. --><path fill="currentColor" d="M178.5 118.9C176.9 121.5 176 124.6 176 127.7C176 136.8 183.4 144 192 144C200.6 144 208 136.8 208 127.7C208 124.5 207.1 121.4 205.5 118.9L192 97.7L178.5 118.9zM151.5 101.8L182.2 53.4C184.3 50 188 48 192 48C196 48 199.7 50 201.8 53.4L232.5 101.7C237.4 109.4 240 118.5 240 127.7C240 154.2 218.5 176 192 176C165.5 176 144 154.2 144 127.7C144 118.5 146.6 109.5 151.5 101.7zM456 304L184 304C153.1 304 128 329.1 128 360L128 403C136.4 405.7 144.5 409.3 152.3 413.8L159.4 417.9C188.4 434.5 224.4 432.7 251.6 413.2C292.5 384 347.4 384 388.3 413.2C415.5 432.6 451.5 434.4 480.5 417.9L487.6 413.8C495.4 409.3 503.5 405.8 511.9 403L511.9 360C511.9 329.1 486.8 304 455.9 304zM128 437.2L128 512C128 529.7 142.3 544 160 544L480 544C497.7 544 512 529.7 512 512L512 437.2C509.1 438.5 506.3 439.9 503.6 441.5L496.5 445.6C456.6 468.4 407.2 465.9 369.8 439.2C340 417.9 300.1 417.9 270.3 439.2C232.9 465.9 183.5 468.4 143.6 445.6L136.5 441.5C133.7 439.9 130.9 438.5 128.1 437.2zM96 360C96 314.1 131.1 276.4 176 272.4L176 224C176 215.2 183.2 208 192 208C200.8 208 208 215.2 208 224L208 272L304 272L304 224C304 215.2 311.2 208 320 208C328.8 208 336 215.2 336 224L336 272L432 272L432 224C432 215.2 439.2 208 448 208C456.8 208 464 215.2 464 224L464 272.4C508.9 276.4 544 314.1 544 360L544 512C544 547.3 515.3 576 480 576L160 576C124.7 576 96 547.3 96 512L96 360zM320 97.7L306.5 118.9C304.9 121.5 304 124.6 304 127.7C304 136.8 311.4 144 320 144C328.6 144 336 136.8 336 127.7C336 124.5 335.1 121.4 333.5 118.9L320 97.7zM310.2 53.4C312.3 50 316 48 320 48C324 48 327.7 50 329.8 53.4L360.5 101.7C365.4 109.4 368 118.5 368 127.7C368 154.2 346.5 176 320 176C293.5 176 272 154.2 272 127.7C272 118.5 274.6 109.5 279.5 101.7L310.2 53.4zM434.5 118.9C432.9 121.5 432 124.6 432 127.7C432 136.8 439.4 144 448 144C456.6 144 464 136.8 464 127.7C464 124.5 463.1 121.4 461.5 118.9L448 97.7L434.5 118.9zM407.5 101.8L438.2 53.5C440.3 50 444 48 448 48C452 48 455.7 50 457.8 53.4L488.5 101.7C493.4 109.4 496 118.5 496 127.7C496 154.2 474.5 176 448 176C421.5 176 400 154.2 400 127.7C400 118.5 402.6 109.5 407.5 101.7z"/></svg>