<svg xmlns="http://www.w3.org/2000/svg" viewBox="0 0 640 640"><!--! Font Awesome Pro 7.0.1 by @fontawesome - https://fontawesome.com License - https://fontawesome.com/license (Commercial License) Copyright 2025 Fonticons, Inc. --><path fill="currentColor" d="M271.8 80C264.7 80 258.5 84.6 256.5 91.4L245.5 128L394.5 128L383.5 91.4C381.5 84.6 375.2 80 368.2 80L271.8 80zM225.8 82.2C231.9 61.9 250.6 48 271.8 48L368.2 48C389.4 48 408.1 61.9 414.2 82.2L427.9 128L528 128C536.8 128 544 135.2 544 144C544 152.8 536.8 160 528 160L112 160C103.2 160 96 152.8 96 144C96 135.2 103.2 128 112 128L212.1 128L225.8 82.2zM147.6 516.7L124.7 208L156.8 208L179.5 514.4C180.7 531.1 194.7 544 211.4 544L428.5 544C445.3 544 459.2 531.1 460.4 514.4L483.1 208L515.2 208L492.3 516.7C489.8 550.1 462 576 428.5 576L211.4 576C177.9 576 150.1 550.1 147.6 516.7zM252.7 284.7C258.9 278.5 269.1 278.5 275.3 284.7L320 329.4L364.7 284.7C370.9 278.5 381.1 278.5 387.3 284.7C393.5 290.9 393.5 301.1 387.3 307.3L342.6 352L387.3 396.7C393.5 402.9 393.5 413.1 387.3 419.3C381.1 425.5 370.9 425.5 364.7 419.3L320 374.6L275.3 419.3C269.1 425.5 258.9 425.5 252.7 419.3C246.5 413.1 246.5 402.9 252.7 396.7L297.4 352L252.7 307.3C246.5 301.1 246.5 290.9 252.7 284.7z"/></svg>