<svg xmlns="http://www.w3.org/2000/svg" viewBox="0 0 640 640"><!--! Font Awesome Pro 7.0.1 by @fontawesome - https://fontawesome.com License - https://fontawesome.com/license (Commercial License) Copyright 2025 Fonticons, Inc. --><path fill="currentColor" d="M328 408L328 91.3L434.3 197.6C437.4 200.7 442.5 200.7 445.6 197.6C448.7 194.5 448.7 189.4 445.6 186.3L325.6 66.3C322.5 63.2 317.4 63.2 314.3 66.3L194.3 186.3C191.2 189.4 191.2 194.5 194.3 197.6C197.4 200.7 202.5 200.7 205.6 197.6L312 91.3L312 408C312 412.4 315.6 416 320 416C324.4 416 328 412.4 328 408zM376 384L480 384C506.5 384 528 405.5 528 432L528 480C528 506.5 506.5 528 480 528L160 528C133.5 528 112 506.5 112 480L112 432C112 405.5 133.5 384 160 384L264 384L264 368L160 368C124.7 368 96 396.7 96 432L96 480C96 515.3 124.7 544 160 544L480 544C515.3 544 544 515.3 544 480L544 432C544 396.7 515.3 368 480 368L376 368L376 384zM464 456C464 464.8 456.8 472 448 472C439.2 472 432 464.8 432 456C432 447.2 439.2 440 448 440C456.8 440 464 447.2 464 456zM448 424C430.3 424 416 438.3 416 456C416 473.7 430.3 488 448 488C465.7 488 480 473.7 480 456C480 438.3 465.7 424 448 424z"/></svg>